<svg xmlns="http://www.w3.org/2000/svg" xmlns:xlink="http://www.w3.org/1999/xlink" width="336" zoomAndPan="magnify" viewBox="0 0 252 143.999998" height="192" preserveAspectRatio="xMidYMid meet" version="1.0"><defs><g/><clipPath id="8e6ca2f20d"><path d="M 8.503906 8.503906 L 243.691406 8.503906 L 243.691406 132.644531 L 8.503906 132.644531 Z M 8.503906 8.503906 " clip-rule="nonzero"/></clipPath><clipPath id="07d0c23f18"><path d="M 12.253906 8.503906 L 239.746094 8.503906 C 240.742188 8.503906 241.695312 8.898438 242.398438 9.601562 C 243.101562 10.304688 243.496094 11.257812 243.496094 12.253906 L 243.496094 128.894531 C 243.496094 129.886719 243.101562 130.839844 242.398438 131.542969 C 241.695312 132.246094 240.742188 132.644531 239.746094 132.644531 L 12.253906 132.644531 C 11.257812 132.644531 10.304688 132.246094 9.601562 131.542969 C 8.898438 130.839844 8.503906 129.886719 8.503906 128.894531 L 8.503906 12.253906 C 8.503906 11.257812 8.898438 10.304688 9.601562 9.601562 C 10.304688 8.898438 11.257812 8.503906 12.253906 8.503906 Z M 12.253906 8.503906 " clip-rule="nonzero"/></clipPath><clipPath id="bb8a7f4af6"><path d="M 0.503906 0.503906 L 235.601562 0.503906 L 235.601562 124.644531 L 0.503906 124.644531 Z M 0.503906 0.503906 " clip-rule="nonzero"/></clipPath><clipPath id="222bbf6603"><path d="M 4.253906 0.503906 L 231.746094 0.503906 C 232.742188 0.503906 233.695312 0.898438 234.398438 1.601562 C 235.101562 2.304688 235.496094 3.257812 235.496094 4.253906 L 235.496094 120.894531 C 235.496094 121.886719 235.101562 122.839844 234.398438 123.542969 C 233.695312 124.246094 232.742188 124.644531 231.746094 124.644531 L 4.253906 124.644531 C 3.257812 124.644531 2.304688 124.246094 1.601562 123.542969 C 0.898438 122.839844 0.503906 121.886719 0.503906 120.894531 L 0.503906 4.253906 C 0.503906 3.257812 0.898438 2.304688 1.601562 1.601562 C 2.304688 0.898438 3.257812 0.503906 4.253906 0.503906 Z M 4.253906 0.503906 " clip-rule="nonzero"/></clipPath><clipPath id="7d305c0380"><rect x="0" width="236" y="0" height="125"/></clipPath><clipPath id="a1baac4591"><path d="M 8.503906 8.503906 L 243.253906 8.503906 L 243.253906 132.867188 L 8.503906 132.867188 Z M 8.503906 8.503906 " clip-rule="nonzero"/></clipPath><clipPath id="f9fe9849ef"><path d="M 12.253906 8.503906 L 239.738281 8.503906 C 240.734375 8.503906 241.6875 8.898438 242.390625 9.601562 C 243.09375 10.304688 243.488281 11.261719 243.488281 12.253906 L 243.488281 128.890625 C 243.488281 129.882812 243.09375 130.839844 242.390625 131.542969 C 241.6875 132.246094 240.734375 132.640625 239.738281 132.640625 L 12.253906 132.640625 C 11.257812 132.640625 10.304688 132.246094 9.601562 131.542969 C 8.898438 130.839844 8.503906 129.882812 8.503906 128.890625 L 8.503906 12.253906 C 8.503906 11.261719 8.898438 10.304688 9.601562 9.601562 C 10.304688 8.898438 11.257812 8.503906 12.253906 8.503906 Z M 12.253906 8.503906 " clip-rule="nonzero"/></clipPath><clipPath id="035fd0337f"><path d="M 69 102 L 183 102 L 183 103.324219 L 69 103.324219 Z M 69 102 " clip-rule="nonzero"/></clipPath><clipPath id="77f92e983d"><path d="M 69 101.824219 L 183 101.824219 L 183 103 L 69 103 Z M 69 101.824219 " clip-rule="nonzero"/></clipPath><clipPath id="470e26d007"><path d="M 110.453125 40.457031 L 137.863281 40.457031 L 137.863281 71.71875 L 110.453125 71.71875 Z M 110.453125 40.457031 " clip-rule="nonzero"/></clipPath><clipPath id="ae00eff0f7"><path d="M 124.15625 40.457031 C 127.792969 40.457031 131.277344 41.902344 133.847656 44.46875 C 136.417969 47.039062 137.863281 50.527344 137.863281 54.160156 L 137.863281 58.003906 C 137.863281 61.640625 136.417969 65.125 133.847656 67.695312 C 131.277344 70.265625 127.792969 71.710938 124.15625 71.710938 C 120.523438 71.710938 117.039062 70.265625 114.46875 67.695312 C 111.898438 65.125 110.453125 61.640625 110.453125 58.003906 L 110.453125 54.160156 C 110.453125 50.527344 111.898438 47.039062 114.46875 44.46875 C 117.039062 41.902344 120.523438 40.457031 124.15625 40.457031 Z M 124.15625 40.457031 " clip-rule="nonzero"/></clipPath><clipPath id="620fceb55b"><path d="M 0.453125 0.457031 L 27.863281 0.457031 L 27.863281 31.71875 L 0.453125 31.71875 Z M 0.453125 0.457031 " clip-rule="nonzero"/></clipPath><clipPath id="dfbf3377d3"><path d="M 14.15625 0.457031 C 17.792969 0.457031 21.277344 1.902344 23.847656 4.46875 C 26.417969 7.039062 27.863281 10.527344 27.863281 14.160156 L 27.863281 18.003906 C 27.863281 21.640625 26.417969 25.125 23.847656 27.695312 C 21.277344 30.265625 17.792969 31.710938 14.15625 31.710938 C 10.523438 31.710938 7.039062 30.265625 4.46875 27.695312 C 1.898438 25.125 0.453125 21.640625 0.453125 18.003906 L 0.453125 14.160156 C 0.453125 10.527344 1.898438 7.039062 4.46875 4.46875 C 7.039062 1.902344 10.523438 0.457031 14.15625 0.457031 Z M 14.15625 0.457031 " clip-rule="nonzero"/></clipPath><clipPath id="212baf840c"><rect x="0" width="28" y="0" height="32"/></clipPath><clipPath id="a60a445760"><path d="M 117.328125 40.457031 L 137.863281 40.457031 L 137.863281 71.710938 L 117.328125 71.710938 Z M 117.328125 40.457031 " clip-rule="nonzero"/></clipPath><clipPath id="c704ab4382"><path d="M 0.328125 0.457031 L 20.863281 0.457031 L 20.863281 31.710938 L 0.328125 31.710938 Z M 0.328125 0.457031 " clip-rule="nonzero"/></clipPath><clipPath id="ad913a9a6c"><rect x="0" width="21" y="0" height="32"/></clipPath><clipPath id="5849a3dc09"><path d="M 113.707031 44.136719 L 134.707031 44.136719 L 134.707031 68.136719 L 113.707031 68.136719 Z M 113.707031 44.136719 " clip-rule="nonzero"/></clipPath><clipPath id="aef13bdf41"><path d="M 14.152344 14.210938 L 22 14.210938 L 22 35.960938 L 14.152344 35.960938 Z M 14.152344 14.210938 " clip-rule="nonzero"/></clipPath><clipPath id="b5e4a36f2b"><path d="M 26 22 L 31.402344 22 L 31.402344 28 L 26 28 Z M 26 22 " clip-rule="nonzero"/></clipPath><clipPath id="b8d6876c16"><path d="M 0.480469 4 L 7 4 L 7 12 L 0.480469 12 Z M 0.480469 4 " clip-rule="nonzero"/></clipPath><clipPath id="266ba2f9df"><path d="M 11 6 L 18 6 L 18 13.519531 L 11 13.519531 Z M 11 6 " clip-rule="nonzero"/></clipPath><clipPath id="a3168e2a06"><rect x="0" width="96" y="0" height="14"/></clipPath></defs><g clip-path="url(#8e6ca2f20d)"><g clip-path="url(#07d0c23f18)"><g transform="matrix(1, 0, 0, 1, 8, 8)"><g clip-path="url(#7d305c0380)"><g clip-path="url(#bb8a7f4af6)"><g clip-path="url(#222bbf6603)"><path fill="#000000" d="M 0.503906 0.503906 L 235.691406 0.503906 L 235.691406 124.644531 L 0.503906 124.644531 Z M 0.503906 0.503906 " fill-opacity="1" fill-rule="nonzero"/></g></g></g></g></g></g><g clip-path="url(#a1baac4591)"><g clip-path="url(#f9fe9849ef)"><path stroke-linecap="butt" transform="matrix(0.75, 0, 0, 0.75, 8.503939, 8.503939)" fill="none" stroke-linejoin="miter" d="M 4.999957 -0.0000430507 L 308.312475 -0.0000430507 C 309.6406 -0.0000430507 310.911433 0.525999 311.848933 1.463499 C 312.786433 2.400999 313.312475 3.67704 313.312475 4.999957 L 313.312475 160.515591 C 313.312475 161.838508 312.786433 163.11455 311.848933 164.05205 C 310.911433 164.98955 309.6406 165.515592 308.312475 165.515592 L 4.999957 165.515592 C 3.671832 165.515592 2.400999 164.98955 1.463498 164.05205 C 0.525998 163.11455 -0.0000433007 161.838508 -0.0000433007 160.515591 L -0.0000433007 4.999957 C -0.0000433007 3.67704 0.525998 2.400999 1.463498 1.463499 C 2.400999 0.525999 3.671832 -0.0000430507 4.999957 -0.0000430507 Z M 4.999957 -0.0000430507 " stroke="#000000" stroke-width="4" stroke-opacity="1" stroke-miterlimit="4"/></g></g><g clip-path="url(#035fd0337f)"><path fill="#9d9d9d" d="M 71.132812 103.527344 L 182.175781 103.527344 L 181.519531 103.074219 L 180.859375 102.625 L 69.8125 102.625 Z M 71.132812 103.527344 " fill-opacity="1" fill-rule="nonzero"/></g><g clip-path="url(#77f92e983d)"><path fill="#9d9d9d" d="M 71.132812 102.726562 L 182.175781 102.726562 L 181.519531 102.273438 L 180.859375 101.820312 L 69.8125 101.820312 Z M 71.132812 102.726562 " fill-opacity="1" fill-rule="nonzero"/></g><g clip-path="url(#470e26d007)"><g clip-path="url(#ae00eff0f7)"><g transform="matrix(1, 0, 0, 1, 110, 40)"><g clip-path="url(#212baf840c)"><g clip-path="url(#620fceb55b)"><g clip-path="url(#dfbf3377d3)"><path fill="#9d9d9d" d="M 0.453125 0.457031 L 27.863281 0.457031 L 27.863281 31.71875 L 0.453125 31.71875 Z M 0.453125 0.457031 " fill-opacity="1" fill-rule="nonzero"/></g></g></g></g></g></g><g clip-path="url(#a60a445760)"><g transform="matrix(1, 0, 0, 1, 117, 40)"><g clip-path="url(#ad913a9a6c)"><g clip-path="url(#c704ab4382)"><path fill="#9d9d9d" d="M 0.328125 0.457031 L 20.863281 0.457031 L 20.863281 31.738281 L 0.328125 31.738281 Z M 0.328125 0.457031 " fill-opacity="1" fill-rule="nonzero"/></g></g></g></g><g clip-path="url(#5849a3dc09)"><path fill="#000000" d="M 121.6875 52.097656 L 121.6875 65.796875 C 121.6875 65.796875 123.628906 62.445312 125.058594 60.0625 L 131.542969 60.0625 C 133.226562 60.0625 134.589844 61.425781 134.589844 63.109375 L 134.589844 68.027344 L 118.082031 68.027344 C 115.675781 68.027344 113.722656 66.074219 113.722656 63.667969 L 113.722656 48.496094 C 113.722656 46.085938 115.675781 44.136719 118.082031 44.136719 L 134.589844 44.136719 L 134.589844 49.054688 C 134.589844 50.734375 133.226562 52.097656 131.542969 52.097656 Z M 121.6875 52.097656 " fill-opacity="1" fill-rule="nonzero"/></g><g clip-path="url(#aef13bdf41)"><path fill="#9d9d9d" d="M 18.628906 35.308594 C 19.28125 35.960938 20.339844 35.960938 20.992188 35.308594 C 21.648438 34.65625 21.648438 33.597656 20.992188 32.941406 C 18.898438 30.847656 17.746094 28.058594 17.746094 25.089844 C 17.746094 22.152344 18.933594 19.300781 21.003906 17.265625 C 21.660156 16.617188 21.667969 15.558594 21.023438 14.898438 C 20.695312 14.566406 20.261719 14.398438 19.828125 14.398438 C 19.40625 14.398438 18.980469 14.558594 18.65625 14.878906 C 15.953125 17.542969 14.402344 21.261719 14.402344 25.089844 C 14.402344 28.953125 15.902344 32.582031 18.628906 35.308594 Z M 18.628906 35.308594 " fill-opacity="1" fill-rule="nonzero"/></g><path fill="#9d9d9d" d="M 22.839844 31.105469 C 23.492188 31.761719 24.550781 31.757812 25.203125 31.109375 C 25.855469 30.453125 25.859375 29.394531 25.203125 28.742188 C 24.226562 27.761719 23.6875 26.464844 23.6875 25.089844 C 23.6875 23.714844 24.226562 22.417969 25.203125 21.4375 C 25.859375 20.785156 25.859375 19.726562 25.203125 19.074219 C 24.878906 18.746094 24.449219 18.582031 24.023438 18.582031 C 23.59375 18.582031 23.164062 18.746094 22.839844 19.074219 C 21.226562 20.683594 20.339844 22.820312 20.339844 25.089844 C 20.339844 27.359375 21.226562 29.496094 22.839844 31.105469 Z M 22.839844 31.105469 " fill-opacity="1" fill-rule="nonzero"/><g clip-path="url(#b5e4a36f2b)"><path fill="#9d9d9d" d="M 28.851562 27.644531 C 30.257812 27.644531 31.402344 26.5 31.402344 25.09375 C 31.402344 23.6875 30.257812 22.542969 28.851562 22.542969 C 27.445312 22.542969 26.300781 23.6875 26.300781 25.09375 C 26.300781 26.5 27.445312 27.644531 28.851562 27.644531 Z M 28.851562 27.644531 " fill-opacity="1" fill-rule="nonzero"/></g><g transform="matrix(1, 0, 0, 1, 78, 82)"><g clip-path="url(#a3168e2a06)"><g clip-path="url(#b8d6876c16)"><g fill="#9d9d9d" fill-opacity="1"><g transform="translate(0.61799, 11.2626)"><g><path d="M 3.90625 -7.140625 L 3.90625 0 L 2.328125 0 L 2.328125 -7.140625 Z M 6.0625 -7.140625 L 6.0625 -5.90625 L 0.171875 -5.90625 L 0.171875 -7.140625 Z M 6.0625 -7.140625 "/></g></g></g></g><g fill="#9d9d9d" fill-opacity="1"><g transform="translate(5.690073, 11.2626)"><g><path d="M 3.328125 -5.25 C 3.753906 -5.25 4.113281 -5.191406 4.40625 -5.078125 C 4.707031 -4.960938 4.9375 -4.769531 5.09375 -4.5 C 5.25 -4.226562 5.328125 -3.851562 5.328125 -3.375 L 5.328125 0 L 4.109375 0 L 3.890625 -1.109375 L 3.78125 -1.265625 L 3.78125 -3.390625 C 3.78125 -3.628906 3.722656 -3.800781 3.609375 -3.90625 C 3.492188 -4.019531 3.28125 -4.078125 2.96875 -4.078125 C 2.695312 -4.078125 2.363281 -4.066406 1.96875 -4.046875 C 1.582031 -4.035156 1.179688 -4.015625 0.765625 -3.984375 L 0.625 -5 C 0.875 -5.050781 1.160156 -5.09375 1.484375 -5.125 C 1.804688 -5.15625 2.128906 -5.179688 2.453125 -5.203125 C 2.773438 -5.234375 3.066406 -5.25 3.328125 -5.25 Z M 4.6875 -3.15625 L 4.6875 -2.296875 L 2.40625 -2.28125 C 2.21875 -2.28125 2.082031 -2.234375 2 -2.140625 C 1.925781 -2.054688 1.890625 -1.9375 1.890625 -1.78125 L 1.890625 -1.53125 C 1.890625 -1.363281 1.9375 -1.234375 2.03125 -1.140625 C 2.125 -1.046875 2.28125 -1 2.5 -1 C 2.675781 -1 2.867188 -1.035156 3.078125 -1.109375 C 3.285156 -1.179688 3.492188 -1.285156 3.703125 -1.421875 C 3.910156 -1.566406 4.09375 -1.734375 4.25 -1.921875 L 4.25 -1.25 C 4.195312 -1.144531 4.109375 -1.015625 3.984375 -0.859375 C 3.859375 -0.703125 3.703125 -0.550781 3.515625 -0.40625 C 3.335938 -0.257812 3.125 -0.132812 2.875 -0.03125 C 2.625 0.0703125 2.335938 0.125 2.015625 0.125 C 1.703125 0.125 1.421875 0.0703125 1.171875 -0.03125 C 0.929688 -0.144531 0.738281 -0.304688 0.59375 -0.515625 C 0.445312 -0.734375 0.375 -1.003906 0.375 -1.328125 L 0.375 -1.859375 C 0.375 -2.265625 0.507812 -2.582031 0.78125 -2.8125 C 1.0625 -3.039062 1.441406 -3.15625 1.921875 -3.15625 Z M 4.6875 -3.15625 "/></g></g></g><g clip-path="url(#266ba2f9df)"><g fill="#9d9d9d" fill-opacity="1"><g transform="translate(11.342081, 11.2626)"><g><path d="M 3.984375 -5.234375 C 4.628906 -5.234375 5.085938 -5 5.359375 -4.53125 C 5.640625 -4.0625 5.78125 -3.390625 5.78125 -2.515625 C 5.78125 -1.828125 5.707031 -1.289062 5.5625 -0.90625 C 5.425781 -0.519531 5.210938 -0.25 4.921875 -0.09375 C 4.640625 0.0625 4.285156 0.140625 3.859375 0.140625 C 3.484375 0.140625 3.128906 0.0859375 2.796875 -0.015625 C 2.472656 -0.117188 2.179688 -0.289062 1.921875 -0.53125 L 2.03125 -1.21875 C 2.257812 -1.15625 2.46875 -1.097656 2.65625 -1.046875 C 2.84375 -0.992188 3.054688 -0.96875 3.296875 -0.96875 C 3.523438 -0.96875 3.703125 -1.003906 3.828125 -1.078125 C 3.960938 -1.148438 4.054688 -1.296875 4.109375 -1.515625 C 4.171875 -1.742188 4.203125 -2.070312 4.203125 -2.5 C 4.203125 -2.925781 4.175781 -3.25 4.125 -3.46875 C 4.070312 -3.695312 3.984375 -3.851562 3.859375 -3.9375 C 3.734375 -4.03125 3.566406 -4.078125 3.359375 -4.078125 C 3.140625 -4.078125 2.9375 -4.03125 2.75 -3.9375 C 2.5625 -3.851562 2.351562 -3.734375 2.125 -3.578125 L 1.921875 -4.28125 C 2.066406 -4.46875 2.242188 -4.632812 2.453125 -4.78125 C 2.671875 -4.925781 2.910156 -5.035156 3.171875 -5.109375 C 3.441406 -5.191406 3.710938 -5.234375 3.984375 -5.234375 Z M 1.859375 -5.125 L 2.015625 -4.1875 L 2.15625 -4.03125 L 2.15625 -0.703125 L 2.109375 -0.578125 C 2.128906 -0.367188 2.144531 -0.15625 2.15625 0.0625 C 2.164062 0.289062 2.164062 0.515625 2.15625 0.734375 L 2.15625 1.96875 L 0.625 1.96875 L 0.625 -5.125 Z M 1.859375 -5.125 "/></g></g></g></g><g fill="#9d9d9d" fill-opacity="1"><g transform="translate(17.304645, 11.2626)"><g><path d="M 1.453125 -1.578125 C 1.660156 -1.578125 1.800781 -1.535156 1.875 -1.453125 C 1.957031 -1.378906 2 -1.238281 2 -1.03125 L 2 -0.53125 C 2 -0.332031 1.957031 -0.191406 1.875 -0.109375 C 1.800781 -0.0351562 1.660156 0 1.453125 0 L 1.0625 0 C 0.863281 0 0.722656 -0.0351562 0.640625 -0.109375 C 0.566406 -0.191406 0.53125 -0.332031 0.53125 -0.53125 L 0.53125 -1.03125 C 0.53125 -1.238281 0.566406 -1.378906 0.640625 -1.453125 C 0.722656 -1.535156 0.863281 -1.578125 1.0625 -1.578125 Z M 1.453125 -1.578125 "/></g></g></g><g fill="#9d9d9d" fill-opacity="1"><g transform="translate(19.58196, 11.2626)"><g/></g></g><g fill="#9d9d9d" fill-opacity="1"><g transform="translate(21.569426, 11.2626)"><g><path d="M 3.078125 -7.28125 C 3.429688 -7.28125 3.8125 -7.257812 4.21875 -7.21875 C 4.632812 -7.1875 5.039062 -7.113281 5.4375 -7 L 5.328125 -5.953125 C 5.023438 -5.953125 4.671875 -5.957031 4.265625 -5.96875 C 3.859375 -5.976562 3.457031 -5.984375 3.0625 -5.984375 C 2.875 -5.984375 2.710938 -5.976562 2.578125 -5.96875 C 2.441406 -5.957031 2.332031 -5.925781 2.25 -5.875 C 2.164062 -5.832031 2.101562 -5.765625 2.0625 -5.671875 C 2.03125 -5.585938 2.015625 -5.460938 2.015625 -5.296875 C 2.015625 -5.054688 2.070312 -4.878906 2.1875 -4.765625 C 2.300781 -4.660156 2.5 -4.5625 2.78125 -4.46875 L 4.15625 -4.03125 C 4.726562 -3.832031 5.125 -3.566406 5.34375 -3.234375 C 5.5625 -2.910156 5.671875 -2.476562 5.671875 -1.9375 C 5.671875 -1.53125 5.625 -1.191406 5.53125 -0.921875 C 5.4375 -0.648438 5.285156 -0.4375 5.078125 -0.28125 C 4.867188 -0.132812 4.59375 -0.03125 4.25 0.03125 C 3.914062 0.101562 3.503906 0.140625 3.015625 0.140625 C 2.773438 0.140625 2.4375 0.125 2 0.09375 C 1.570312 0.0625 1.078125 -0.015625 0.515625 -0.140625 L 0.625 -1.265625 C 1.03125 -1.253906 1.382812 -1.242188 1.6875 -1.234375 C 1.988281 -1.222656 2.242188 -1.21875 2.453125 -1.21875 C 2.671875 -1.21875 2.859375 -1.21875 3.015625 -1.21875 C 3.285156 -1.21875 3.5 -1.234375 3.65625 -1.265625 C 3.8125 -1.296875 3.921875 -1.363281 3.984375 -1.46875 C 4.046875 -1.570312 4.078125 -1.722656 4.078125 -1.921875 C 4.078125 -2.085938 4.054688 -2.21875 4.015625 -2.3125 C 3.972656 -2.414062 3.898438 -2.492188 3.796875 -2.546875 C 3.691406 -2.609375 3.554688 -2.664062 3.390625 -2.71875 L 1.9375 -3.21875 C 1.394531 -3.414062 1.007812 -3.675781 0.78125 -4 C 0.550781 -4.320312 0.4375 -4.75 0.4375 -5.28125 C 0.4375 -5.695312 0.484375 -6.035156 0.578125 -6.296875 C 0.679688 -6.554688 0.835938 -6.753906 1.046875 -6.890625 C 1.265625 -7.035156 1.539062 -7.132812 1.875 -7.1875 C 2.207031 -7.25 2.609375 -7.28125 3.078125 -7.28125 Z M 3.078125 -7.28125 "/></g></g></g><g fill="#9d9d9d" fill-opacity="1"><g transform="translate(27.387063, 11.2626)"><g><path d="M 4.1875 -5.25 C 5.15625 -5.25 5.640625 -4.773438 5.640625 -3.828125 L 5.640625 0 L 4.09375 0 L 4.09375 -3.359375 C 4.09375 -3.585938 4.050781 -3.742188 3.96875 -3.828125 C 3.894531 -3.910156 3.753906 -3.953125 3.546875 -3.953125 C 3.328125 -3.953125 3.097656 -3.910156 2.859375 -3.828125 C 2.628906 -3.742188 2.34375 -3.609375 2 -3.421875 L 1.859375 -4.234375 C 2.242188 -4.554688 2.628906 -4.804688 3.015625 -4.984375 C 3.410156 -5.160156 3.800781 -5.25 4.1875 -5.25 Z M 2.15625 -7.25 L 2.171875 -5.484375 C 2.171875 -5.210938 2.15625 -4.953125 2.125 -4.703125 C 2.09375 -4.460938 2.054688 -4.265625 2.015625 -4.109375 L 2.15625 -3.96875 L 2.15625 0 L 0.625 0 L 0.625 -7.25 Z M 2.15625 -7.25 "/></g></g></g><g fill="#9d9d9d" fill-opacity="1"><g transform="translate(33.359978, 11.2626)"><g><path d="M 3.328125 -5.25 C 3.753906 -5.25 4.113281 -5.191406 4.40625 -5.078125 C 4.707031 -4.960938 4.9375 -4.769531 5.09375 -4.5 C 5.25 -4.226562 5.328125 -3.851562 5.328125 -3.375 L 5.328125 0 L 4.109375 0 L 3.890625 -1.109375 L 3.78125 -1.265625 L 3.78125 -3.390625 C 3.78125 -3.628906 3.722656 -3.800781 3.609375 -3.90625 C 3.492188 -4.019531 3.28125 -4.078125 2.96875 -4.078125 C 2.695312 -4.078125 2.363281 -4.066406 1.96875 -4.046875 C 1.582031 -4.035156 1.179688 -4.015625 0.765625 -3.984375 L 0.625 -5 C 0.875 -5.050781 1.160156 -5.09375 1.484375 -5.125 C 1.804688 -5.15625 2.128906 -5.179688 2.453125 -5.203125 C 2.773438 -5.234375 3.066406 -5.25 3.328125 -5.25 Z M 4.6875 -3.15625 L 4.6875 -2.296875 L 2.40625 -2.28125 C 2.21875 -2.28125 2.082031 -2.234375 2 -2.140625 C 1.925781 -2.054688 1.890625 -1.9375 1.890625 -1.78125 L 1.890625 -1.53125 C 1.890625 -1.363281 1.9375 -1.234375 2.03125 -1.140625 C 2.125 -1.046875 2.28125 -1 2.5 -1 C 2.675781 -1 2.867188 -1.035156 3.078125 -1.109375 C 3.285156 -1.179688 3.492188 -1.285156 3.703125 -1.421875 C 3.910156 -1.566406 4.09375 -1.734375 4.25 -1.921875 L 4.25 -1.25 C 4.195312 -1.144531 4.109375 -1.015625 3.984375 -0.859375 C 3.859375 -0.703125 3.703125 -0.550781 3.515625 -0.40625 C 3.335938 -0.257812 3.125 -0.132812 2.875 -0.03125 C 2.625 0.0703125 2.335938 0.125 2.015625 0.125 C 1.703125 0.125 1.421875 0.0703125 1.171875 -0.03125 C 0.929688 -0.144531 0.738281 -0.304688 0.59375 -0.515625 C 0.445312 -0.734375 0.375 -1.003906 0.375 -1.328125 L 0.375 -1.859375 C 0.375 -2.265625 0.507812 -2.582031 0.78125 -2.8125 C 1.0625 -3.039062 1.441406 -3.15625 1.921875 -3.15625 Z M 4.6875 -3.15625 "/></g></g></g><g fill="#9d9d9d" fill-opacity="1"><g transform="translate(39.011986, 11.2626)"><g><path d="M 1.828125 -5.125 L 2.015625 -4.109375 L 2.15625 -3.96875 L 2.15625 0 L 0.625 0 L 0.625 -5.125 Z M 4.3125 -5.25 L 4.171875 -3.828125 L 3.75 -3.828125 C 3.507812 -3.828125 3.253906 -3.789062 2.984375 -3.71875 C 2.722656 -3.65625 2.394531 -3.554688 2 -3.421875 L 1.890625 -4.28125 C 2.253906 -4.59375 2.617188 -4.832031 2.984375 -5 C 3.347656 -5.164062 3.703125 -5.25 4.046875 -5.25 Z M 4.3125 -5.25 "/></g></g></g><g fill="#9d9d9d" fill-opacity="1"><g transform="translate(43.100849, 11.2626)"><g><path d="M 3.046875 -5.25 C 3.910156 -5.25 4.53125 -5.101562 4.90625 -4.8125 C 5.28125 -4.519531 5.46875 -4.082031 5.46875 -3.5 C 5.476562 -3.03125 5.359375 -2.679688 5.109375 -2.453125 C 4.867188 -2.222656 4.453125 -2.109375 3.859375 -2.109375 L 1 -2.109375 L 1 -2.96875 L 3.4375 -2.96875 C 3.675781 -2.96875 3.828125 -3.015625 3.890625 -3.109375 C 3.953125 -3.210938 3.984375 -3.351562 3.984375 -3.53125 C 3.984375 -3.769531 3.914062 -3.9375 3.78125 -4.03125 C 3.644531 -4.125 3.414062 -4.171875 3.09375 -4.171875 C 2.8125 -4.171875 2.59375 -4.132812 2.4375 -4.0625 C 2.28125 -3.988281 2.171875 -3.84375 2.109375 -3.625 C 2.046875 -3.40625 2.015625 -3.09375 2.015625 -2.6875 C 2.015625 -2.257812 2.050781 -1.929688 2.125 -1.703125 C 2.195312 -1.472656 2.320312 -1.3125 2.5 -1.21875 C 2.6875 -1.132812 2.945312 -1.09375 3.28125 -1.09375 C 3.507812 -1.09375 3.796875 -1.097656 4.140625 -1.109375 C 4.492188 -1.128906 4.847656 -1.160156 5.203125 -1.203125 L 5.34375 -0.265625 C 5.144531 -0.160156 4.914062 -0.0820312 4.65625 -0.03125 C 4.40625 0.0195312 4.144531 0.0546875 3.875 0.078125 C 3.601562 0.109375 3.34375 0.125 3.09375 0.125 C 2.445312 0.125 1.925781 0.03125 1.53125 -0.15625 C 1.132812 -0.351562 0.847656 -0.644531 0.671875 -1.03125 C 0.492188 -1.425781 0.40625 -1.929688 0.40625 -2.546875 C 0.40625 -3.210938 0.492188 -3.742188 0.671875 -4.140625 C 0.847656 -4.535156 1.128906 -4.816406 1.515625 -4.984375 C 1.910156 -5.160156 2.421875 -5.25 3.046875 -5.25 Z M 3.046875 -5.25 "/></g></g></g><g fill="#9d9d9d" fill-opacity="1"><g transform="translate(48.690745, 11.2626)"><g><path d="M 1.453125 -1.578125 C 1.660156 -1.578125 1.800781 -1.535156 1.875 -1.453125 C 1.957031 -1.378906 2 -1.238281 2 -1.03125 L 2 -0.53125 C 2 -0.332031 1.957031 -0.191406 1.875 -0.109375 C 1.800781 -0.0351562 1.660156 0 1.453125 0 L 1.0625 0 C 0.863281 0 0.722656 -0.0351562 0.640625 -0.109375 C 0.566406 -0.191406 0.53125 -0.332031 0.53125 -0.53125 L 0.53125 -1.03125 C 0.53125 -1.238281 0.566406 -1.378906 0.640625 -1.453125 C 0.722656 -1.535156 0.863281 -1.578125 1.0625 -1.578125 Z M 1.453125 -1.578125 "/></g></g></g><g fill="#9d9d9d" fill-opacity="1"><g transform="translate(50.96806, 11.2626)"><g/></g></g><g fill="#9d9d9d" fill-opacity="1"><g transform="translate(52.956351, 11.2626)"><g><path d="M 3.578125 -7.265625 C 3.953125 -7.265625 4.269531 -7.253906 4.53125 -7.234375 C 4.789062 -7.210938 5.03125 -7.179688 5.25 -7.140625 C 5.46875 -7.109375 5.691406 -7.0625 5.921875 -7 L 5.765625 -5.359375 C 5.515625 -5.359375 5.285156 -5.359375 5.078125 -5.359375 C 4.878906 -5.359375 4.660156 -5.359375 4.421875 -5.359375 C 4.191406 -5.367188 3.910156 -5.375 3.578125 -5.375 C 3.335938 -5.375 3.15625 -5.320312 3.03125 -5.21875 C 2.90625 -5.125 2.816406 -4.945312 2.765625 -4.6875 C 2.710938 -4.425781 2.6875 -4.054688 2.6875 -3.578125 C 2.6875 -3.085938 2.710938 -2.710938 2.765625 -2.453125 C 2.816406 -2.203125 2.90625 -2.023438 3.03125 -1.921875 C 3.15625 -1.816406 3.335938 -1.765625 3.578125 -1.765625 C 4.085938 -1.765625 4.515625 -1.769531 4.859375 -1.78125 C 5.210938 -1.789062 5.566406 -1.816406 5.921875 -1.859375 L 6.078125 -0.21875 C 5.722656 -0.09375 5.351562 -0.00390625 4.96875 0.046875 C 4.59375 0.0976562 4.128906 0.125 3.578125 0.125 C 2.785156 0.125 2.148438 0.00390625 1.671875 -0.234375 C 1.203125 -0.472656 0.859375 -0.859375 0.640625 -1.390625 C 0.429688 -1.929688 0.328125 -2.660156 0.328125 -3.578125 C 0.328125 -4.484375 0.429688 -5.207031 0.640625 -5.75 C 0.859375 -6.289062 1.203125 -6.675781 1.671875 -6.90625 C 2.148438 -7.144531 2.785156 -7.265625 3.578125 -7.265625 Z M 3.578125 -7.265625 "/></g></g></g><g fill="#9d9d9d" fill-opacity="1"><g transform="translate(58.970672, 11.2626)"><g><path d="M 3.171875 -5.328125 C 3.878906 -5.328125 4.441406 -5.238281 4.859375 -5.0625 C 5.285156 -4.882812 5.59375 -4.59375 5.78125 -4.1875 C 5.96875 -3.789062 6.0625 -3.253906 6.0625 -2.578125 C 6.0625 -1.910156 5.96875 -1.378906 5.78125 -0.984375 C 5.59375 -0.597656 5.285156 -0.316406 4.859375 -0.140625 C 4.441406 0.0351562 3.878906 0.125 3.171875 0.125 C 2.460938 0.125 1.894531 0.0351562 1.46875 -0.140625 C 1.050781 -0.316406 0.742188 -0.597656 0.546875 -0.984375 C 0.359375 -1.378906 0.265625 -1.910156 0.265625 -2.578125 C 0.265625 -3.253906 0.359375 -3.789062 0.546875 -4.1875 C 0.742188 -4.59375 1.050781 -4.882812 1.46875 -5.0625 C 1.894531 -5.238281 2.460938 -5.328125 3.171875 -5.328125 Z M 3.171875 -3.859375 C 3.003906 -3.859375 2.875 -3.820312 2.78125 -3.75 C 2.695312 -3.6875 2.632812 -3.566406 2.59375 -3.390625 C 2.5625 -3.210938 2.546875 -2.941406 2.546875 -2.578125 C 2.546875 -2.234375 2.5625 -1.972656 2.59375 -1.796875 C 2.632812 -1.617188 2.695312 -1.5 2.78125 -1.4375 C 2.875 -1.375 3.003906 -1.34375 3.171875 -1.34375 C 3.335938 -1.34375 3.460938 -1.375 3.546875 -1.4375 C 3.640625 -1.5 3.703125 -1.617188 3.734375 -1.796875 C 3.765625 -1.972656 3.78125 -2.234375 3.78125 -2.578125 C 3.78125 -2.941406 3.765625 -3.210938 3.734375 -3.390625 C 3.703125 -3.566406 3.640625 -3.6875 3.546875 -3.75 C 3.460938 -3.820312 3.335938 -3.859375 3.171875 -3.859375 Z M 3.171875 -3.859375 "/></g></g></g><g fill="#9d9d9d" fill-opacity="1"><g transform="translate(65.047105, 11.2626)"><g><path d="M 4.484375 -5.328125 C 5.503906 -5.328125 6.015625 -4.84375 6.015625 -3.875 L 6.015625 0 L 3.84375 0 L 3.84375 -3.1875 C 3.84375 -3.300781 3.8125 -3.378906 3.75 -3.421875 C 3.695312 -3.460938 3.601562 -3.484375 3.46875 -3.484375 C 3.34375 -3.484375 3.195312 -3.472656 3.03125 -3.453125 C 2.863281 -3.429688 2.648438 -3.378906 2.390625 -3.296875 L 2.296875 -4.359375 C 2.640625 -4.679688 3 -4.921875 3.375 -5.078125 C 3.757812 -5.242188 4.128906 -5.328125 4.484375 -5.328125 Z M 2.15625 -5.171875 L 2.421875 -4.125 L 2.625 -4 L 2.625 0 L 0.453125 0 L 0.453125 -5.171875 Z M 2.15625 -5.171875 "/></g></g></g><g fill="#9d9d9d" fill-opacity="1"><g transform="translate(71.227057, 11.2626)"><g><path d="M 4.484375 -5.328125 C 5.503906 -5.328125 6.015625 -4.84375 6.015625 -3.875 L 6.015625 0 L 3.84375 0 L 3.84375 -3.1875 C 3.84375 -3.300781 3.8125 -3.378906 3.75 -3.421875 C 3.695312 -3.460938 3.601562 -3.484375 3.46875 -3.484375 C 3.34375 -3.484375 3.195312 -3.472656 3.03125 -3.453125 C 2.863281 -3.429688 2.648438 -3.378906 2.390625 -3.296875 L 2.296875 -4.359375 C 2.640625 -4.679688 3 -4.921875 3.375 -5.078125 C 3.757812 -5.242188 4.128906 -5.328125 4.484375 -5.328125 Z M 2.15625 -5.171875 L 2.421875 -4.125 L 2.625 -4 L 2.625 0 L 0.453125 0 L 0.453125 -5.171875 Z M 2.15625 -5.171875 "/></g></g></g><g fill="#9d9d9d" fill-opacity="1"><g transform="translate(77.407008, 11.2626)"><g><path d="M 3.203125 -5.328125 C 4.171875 -5.328125 4.859375 -5.171875 5.265625 -4.859375 C 5.679688 -4.546875 5.890625 -4.085938 5.890625 -3.484375 C 5.898438 -2.992188 5.757812 -2.640625 5.46875 -2.421875 C 5.175781 -2.210938 4.648438 -2.109375 3.890625 -2.109375 L 1.09375 -2.109375 L 1.09375 -3.140625 L 3.28125 -3.140625 C 3.507812 -3.140625 3.65625 -3.160156 3.71875 -3.203125 C 3.78125 -3.253906 3.8125 -3.363281 3.8125 -3.53125 C 3.8125 -3.695312 3.769531 -3.800781 3.6875 -3.84375 C 3.601562 -3.894531 3.460938 -3.921875 3.265625 -3.921875 C 3.066406 -3.929688 2.914062 -3.910156 2.8125 -3.859375 C 2.707031 -3.816406 2.632812 -3.710938 2.59375 -3.546875 C 2.550781 -3.378906 2.53125 -3.125 2.53125 -2.78125 C 2.53125 -2.46875 2.550781 -2.21875 2.59375 -2.03125 C 2.644531 -1.851562 2.734375 -1.726562 2.859375 -1.65625 C 2.992188 -1.582031 3.191406 -1.546875 3.453125 -1.546875 C 3.660156 -1.546875 3.953125 -1.550781 4.328125 -1.5625 C 4.703125 -1.570312 5.109375 -1.601562 5.546875 -1.65625 L 5.75 -0.359375 C 5.507812 -0.234375 5.25 -0.132812 4.96875 -0.0625 C 4.695312 0.0078125 4.410156 0.0546875 4.109375 0.078125 C 3.816406 0.109375 3.519531 0.125 3.21875 0.125 C 2.5 0.125 1.921875 0.0234375 1.484375 -0.171875 C 1.046875 -0.367188 0.734375 -0.664062 0.546875 -1.0625 C 0.359375 -1.46875 0.265625 -1.960938 0.265625 -2.546875 C 0.265625 -3.234375 0.359375 -3.773438 0.546875 -4.171875 C 0.742188 -4.578125 1.054688 -4.867188 1.484375 -5.046875 C 1.921875 -5.234375 2.492188 -5.328125 3.203125 -5.328125 Z M 3.203125 -5.328125 "/></g></g></g><g fill="#9d9d9d" fill-opacity="1"><g transform="translate(83.266053, 11.2626)"><g><path d="M 3.046875 -5.328125 C 3.253906 -5.328125 3.488281 -5.316406 3.75 -5.296875 C 4.007812 -5.273438 4.265625 -5.234375 4.515625 -5.171875 C 4.773438 -5.117188 5.003906 -5.039062 5.203125 -4.9375 L 5 -3.59375 C 4.664062 -3.59375 4.375 -3.59375 4.125 -3.59375 C 3.875 -3.59375 3.640625 -3.59375 3.421875 -3.59375 C 3.203125 -3.59375 3.023438 -3.5625 2.890625 -3.5 C 2.765625 -3.445312 2.675781 -3.347656 2.625 -3.203125 C 2.570312 -3.066406 2.546875 -2.863281 2.546875 -2.59375 C 2.546875 -2.332031 2.570312 -2.128906 2.625 -1.984375 C 2.675781 -1.835938 2.765625 -1.734375 2.890625 -1.671875 C 3.023438 -1.617188 3.203125 -1.59375 3.421875 -1.59375 C 3.535156 -1.59375 3.679688 -1.59375 3.859375 -1.59375 C 4.035156 -1.601562 4.226562 -1.613281 4.4375 -1.625 C 4.65625 -1.632812 4.875 -1.648438 5.09375 -1.671875 L 5.28125 -0.3125 C 4.976562 -0.15625 4.625 -0.046875 4.21875 0.015625 C 3.820312 0.0859375 3.425781 0.125 3.03125 0.125 C 2.351562 0.125 1.8125 0.0351562 1.40625 -0.140625 C 1 -0.316406 0.707031 -0.601562 0.53125 -1 C 0.351562 -1.40625 0.265625 -1.9375 0.265625 -2.59375 C 0.265625 -3.269531 0.351562 -3.804688 0.53125 -4.203125 C 0.71875 -4.597656 1.015625 -4.882812 1.421875 -5.0625 C 1.828125 -5.238281 2.367188 -5.328125 3.046875 -5.328125 Z M 3.046875 -5.328125 "/></g></g></g><g fill="#9d9d9d" fill-opacity="1"><g transform="translate(88.483286, 11.2626)"><g><path d="M 3.15625 -6.53125 L 3.15625 -1.890625 C 3.15625 -1.753906 3.1875 -1.65625 3.25 -1.59375 C 3.320312 -1.539062 3.441406 -1.515625 3.609375 -1.515625 L 4.15625 -1.515625 L 4.390625 -0.125 C 4.242188 -0.0625 4.0625 -0.015625 3.84375 0.015625 C 3.632812 0.0546875 3.421875 0.0859375 3.203125 0.109375 C 2.984375 0.128906 2.789062 0.140625 2.625 0.140625 C 2.125 0.140625 1.722656 0.015625 1.421875 -0.234375 C 1.128906 -0.492188 0.984375 -0.851562 0.984375 -1.3125 L 0.984375 -6.53125 Z M 4.40625 -5.171875 L 4.40625 -3.875 L 0.109375 -3.875 L 0.109375 -5.125 L 1.09375 -5.171875 Z M 4.40625 -5.171875 "/></g></g></g><g fill="#9d9d9d" fill-opacity="1"><g transform="translate(92.768876, 11.2626)"><g><path d="M 1.515625 -1.765625 C 1.765625 -1.765625 1.9375 -1.710938 2.03125 -1.609375 C 2.125 -1.515625 2.171875 -1.347656 2.171875 -1.109375 L 2.171875 -0.65625 C 2.171875 -0.414062 2.125 -0.242188 2.03125 -0.140625 C 1.9375 -0.046875 1.765625 0 1.515625 0 L 1.09375 0 C 0.84375 0 0.671875 -0.046875 0.578125 -0.140625 C 0.484375 -0.242188 0.4375 -0.414062 0.4375 -0.65625 L 0.4375 -1.109375 C 0.4375 -1.347656 0.484375 -1.515625 0.578125 -1.609375 C 0.671875 -1.710938 0.84375 -1.765625 1.09375 -1.765625 Z M 1.515625 -1.765625 "/></g></g></g></g></g></svg>