<svg xmlns="http://www.w3.org/2000/svg" xmlns:xlink="http://www.w3.org/1999/xlink" width="336" zoomAndPan="magnify" viewBox="0 0 252 143.999998" height="192" preserveAspectRatio="xMidYMid meet" version="1.0"><defs><filter x="0%" y="0%" width="100%" height="100%" id="1e20af12a3"><feColorMatrix values="0 0 0 0 1 0 0 0 0 1 0 0 0 0 1 0 0 0 1 0" color-interpolation-filters="sRGB"/></filter><clipPath id="2338b3edc7"><path d="M 8.503906 8.503906 L 243.636719 8.503906 L 243.636719 135.496094 L 8.503906 135.496094 Z M 8.503906 8.503906 " clip-rule="nonzero"/></clipPath><clipPath id="844ed103b4"><path d="M 12.253906 8.503906 L 239.746094 8.503906 C 240.742188 8.503906 241.695312 8.898438 242.398438 9.601562 C 243.101562 10.304688 243.496094 11.257812 243.496094 12.253906 L 243.496094 131.746094 C 243.496094 132.742188 243.101562 133.695312 242.398438 134.398438 C 241.695312 135.101562 240.742188 135.496094 239.746094 135.496094 L 12.253906 135.496094 C 11.257812 135.496094 10.304688 135.101562 9.601562 134.398438 C 8.898438 133.695312 8.503906 132.742188 8.503906 131.746094 L 8.503906 12.253906 C 8.503906 11.257812 8.898438 10.304688 9.601562 9.601562 C 10.304688 8.898438 11.257812 8.503906 12.253906 8.503906 Z M 12.253906 8.503906 " clip-rule="nonzero"/></clipPath><clipPath id="82e65b41bb"><path d="M 0.503906 0.503906 L 235.601562 0.503906 L 235.601562 127.496094 L 0.503906 127.496094 Z M 0.503906 0.503906 " clip-rule="nonzero"/></clipPath><clipPath id="83fa836338"><path d="M 4.253906 0.503906 L 231.746094 0.503906 C 232.742188 0.503906 233.695312 0.898438 234.398438 1.601562 C 235.101562 2.304688 235.496094 3.257812 235.496094 4.253906 L 235.496094 123.746094 C 235.496094 124.742188 235.101562 125.695312 234.398438 126.398438 C 233.695312 127.101562 232.742188 127.496094 231.746094 127.496094 L 4.253906 127.496094 C 3.257812 127.496094 2.304688 127.101562 1.601562 126.398438 C 0.898438 125.695312 0.503906 124.742188 0.503906 123.746094 L 0.503906 4.253906 C 0.503906 3.257812 0.898438 2.304688 1.601562 1.601562 C 2.304688 0.898438 3.257812 0.503906 4.253906 0.503906 Z M 4.253906 0.503906 " clip-rule="nonzero"/></clipPath><clipPath id="06e8307c2d"><rect x="0" width="236" y="0" height="128"/></clipPath><clipPath id="81603427e6"><path d="M 8.507812 8.503906 L 243.253906 8.503906 L 243.253906 135.253906 L 8.507812 135.253906 Z M 8.507812 8.503906 " clip-rule="nonzero"/></clipPath><clipPath id="e09891bbe9"><path d="M 12.257812 8.503906 L 239.734375 8.503906 C 240.730469 8.503906 241.683594 8.898438 242.386719 9.601562 C 243.089844 10.304688 243.484375 11.257812 243.484375 12.253906 L 243.484375 131.738281 C 243.484375 132.734375 243.089844 133.6875 242.386719 134.390625 C 241.683594 135.09375 240.730469 135.488281 239.734375 135.488281 L 12.257812 135.488281 C 11.261719 135.488281 10.308594 135.09375 9.605469 134.390625 C 8.902344 133.6875 8.507812 132.734375 8.507812 131.738281 L 8.507812 12.253906 C 8.507812 11.257812 8.902344 10.304688 9.605469 9.601562 C 10.308594 8.898438 11.261719 8.503906 12.257812 8.503906 Z M 12.257812 8.503906 " clip-rule="nonzero"/></clipPath><clipPath id="79bde9ef92"><path d="M 0.5625 0.398438 L 30.601562 0.398438 L 30.601562 30.4375 L 0.5625 30.4375 Z M 0.5625 0.398438 " clip-rule="nonzero"/></clipPath><clipPath id="5dc84568b2"><rect x="0" width="31" y="0" height="31"/></clipPath><mask id="d07b3f86fd"><g filter="url(#1e20af12a3)"><rect x="-25.2" width="302.4" fill="#000000" y="-14.4" height="172.799997" fill-opacity="0.74"/></g></mask><clipPath id="3f89e4a924"><path d="M 0.398438 0.398438 L 98.851562 0.398438 L 98.851562 115.601562 L 0.398438 115.601562 Z M 0.398438 0.398438 " clip-rule="nonzero"/></clipPath><clipPath id="0a69e83f22"><path d="M 0.398438 0.398438 L 98.851562 0.398438 L 98.851562 115.601562 L 0.398438 115.601562 Z M 0.398438 0.398438 " clip-rule="nonzero"/></clipPath><clipPath id="ce1c4fc6f9"><rect x="0" width="99" y="0" height="116"/></clipPath><clipPath id="42b6f142ef"><rect x="0" width="100" y="0" height="116"/></clipPath></defs><g clip-path="url(#2338b3edc7)"><g clip-path="url(#844ed103b4)"><g transform="matrix(1, 0, 0, 1, 8, 8)"><g clip-path="url(#06e8307c2d)"><g clip-path="url(#82e65b41bb)"><g clip-path="url(#83fa836338)"><path fill="#000000" d="M 0.503906 0.503906 L 235.636719 0.503906 L 235.636719 127.496094 L 0.503906 127.496094 Z M 0.503906 0.503906 " fill-opacity="1" fill-rule="nonzero"/></g></g></g></g></g></g><g clip-path="url(#81603427e6)"><g clip-path="url(#e09891bbe9)"><path stroke-linecap="butt" transform="matrix(0.75, 0, 0, 0.75, 8.503939, 8.503932)" fill="none" stroke-linejoin="miter" d="M 5.005165 -0.0000344107 L 308.307247 -0.0000344107 C 309.635372 -0.0000344107 310.906205 0.526007 311.843705 1.463507 C 312.781205 2.401007 313.307247 3.671841 313.307247 4.999966 L 313.307247 164.312465 C 313.307247 165.64059 312.781205 166.911423 311.843705 167.848923 C 310.906205 168.786423 309.635372 169.312465 308.307247 169.312465 L 5.005165 169.312465 C 3.67704 169.312465 2.406207 168.786423 1.468707 167.848923 C 0.531207 166.911423 0.00516503 165.64059 0.00516503 164.312465 L 0.00516503 4.999966 C 0.00516503 3.671841 0.531207 2.401007 1.468707 1.463507 C 2.406207 0.526007 3.67704 -0.0000344107 5.005165 -0.0000344107 Z M 5.005165 -0.0000344107 " stroke="#000000" stroke-width="4" stroke-opacity="1" stroke-miterlimit="4"/></g></g><g transform="matrix(1, 0, 0, 1, 207, 14)"><g clip-path="url(#5dc84568b2)"><g clip-path="url(#79bde9ef92)"><path fill="#000000" d="M 0.5625 0.398438 L 30.601562 0.398438 L 30.601562 30.4375 L 0.5625 30.4375 Z M 0.5625 0.398438 " fill-opacity="1" fill-rule="nonzero"/><path stroke-linecap="butt" transform="matrix(1.035721, 0, 0, 1.035721, 0.564072, 0.400001)" fill="none" stroke-linejoin="miter" d="M -0.00151775 0.500103 L 6.998437 0.500103 M 15.001617 0.500103 L 17.000526 0.500103 M 18.999436 0.500103 L 20.998345 0.500103 M 22.001571 0.500103 L 29.001526 0.500103 M -0.00151775 1.499558 L 1.001708 1.499558 M 5.998982 1.499558 L 6.998437 1.499558 M 9.001117 1.499558 L 10.000572 1.499558 M 11.999482 1.499558 L 12.998936 1.499558 M 22.001571 1.499558 L 23.001026 1.499558 M 27.9983 1.499558 L 29.001526 1.499558 M -0.00151775 2.499013 L 1.001708 2.499013 M 2.001163 2.499013 L 4.999527 2.499013 M 5.998982 2.499013 L 6.998437 2.499013 M 8.001663 2.499013 L 11.000027 2.499013 M 11.999482 2.499013 L 12.998936 2.499013 M 13.998391 2.499013 L 15.001617 2.499013 M 16.001072 2.499013 L 17.000526 2.499013 M 17.999981 2.499013 L 20.998345 2.499013 M 22.001571 2.499013 L 23.001026 2.499013 M 24.000481 2.499013 L 26.998845 2.499013 M 27.9983 2.499013 L 29.001526 2.499013 M -0.00151775 3.498467 L 1.001708 3.498467 M 2.001163 3.498467 L 4.999527 3.498467 M 5.998982 3.498467 L 6.998437 3.498467 M 8.001663 3.498467 L 11.000027 3.498467 M 11.999482 3.498467 L 12.998936 3.498467 M 16.001072 3.498467 L 17.999981 3.498467 M 18.999436 3.498467 L 19.998891 3.498467 M 22.001571 3.498467 L 23.001026 3.498467 M 24.000481 3.498467 L 26.998845 3.498467 M 27.9983 3.498467 L 29.001526 3.498467 M -0.00151775 4.501694 L 1.001708 4.501694 M 2.001163 4.501694 L 4.999527 4.501694 M 5.998982 4.501694 L 6.998437 4.501694 M 8.001663 4.501694 L 11.000027 4.501694 M 11.999482 4.501694 L 16.001072 4.501694 M 18.999436 4.501694 L 20.998345 4.501694 M 22.001571 4.501694 L 23.001026 4.501694 M 24.000481 4.501694 L 26.998845 4.501694 M 27.9983 4.501694 L 29.001526 4.501694 M -0.00151775 5.501148 L 1.001708 5.501148 M 5.998982 5.501148 L 6.998437 5.501148 M 8.001663 5.501148 L 11.000027 5.501148 M 12.998936 5.501148 L 18.999436 5.501148 M 19.998891 5.501148 L 20.998345 5.501148 M 22.001571 5.501148 L 23.001026 5.501148 M 27.9983 5.501148 L 29.001526 5.501148 M -0.00151775 6.500603 L 6.998437 6.500603 M 8.001663 6.500603 L 9.001117 6.500603 M 10.000572 6.500603 L 11.000027 6.500603 M 11.999482 6.500603 L 12.998936 6.500603 M 13.998391 6.500603 L 15.001617 6.500603 M 16.001072 6.500603 L 17.000526 6.500603 M 17.999981 6.500603 L 18.999436 6.500603 M 19.998891 6.500603 L 20.998345 6.500603 M 22.001571 6.500603 L 29.001526 6.500603 M 8.001663 7.500058 L 10.000572 7.500058 M 11.999482 7.500058 L 13.998391 7.500058 M 15.001617 7.500058 L 16.001072 7.500058 M -0.00151775 8.499512 L 1.001708 8.499512 M 2.001163 8.499512 L 6.998437 8.499512 M 11.000027 8.499512 L 12.998936 8.499512 M 13.998391 8.499512 L 16.001072 8.499512 M 17.000526 8.499512 L 17.999981 8.499512 M 18.999436 8.499512 L 19.998891 8.499512 M 22.001571 8.499512 L 26.998845 8.499512 M -0.00151775 9.498967 L 1.001708 9.498967 M 2.001163 9.498967 L 4.000073 9.498967 M 6.998437 9.498967 L 11.000027 9.498967 M 15.001617 9.498967 L 24.999936 9.498967 M 27.9983 9.498967 L 29.001526 9.498967 M 2.001163 10.498422 L 3.000618 10.498422 M 4.000073 10.498422 L 6.998437 10.498422 M 8.001663 10.498422 L 10.000572 10.498422 M 11.000027 10.498422 L 12.998936 10.498422 M 17.999981 10.498422 L 18.999436 10.498422 M 20.998345 10.498422 L 22.001571 10.498422 M -0.00151775 11.501648 L 1.001708 11.501648 M 2.001163 11.501648 L 3.000618 11.501648 M 4.999527 11.501648 L 5.998982 11.501648 M 10.000572 11.501648 L 12.998936 11.501648 M 13.998391 11.501648 L 15.001617 11.501648 M 16.001072 11.501648 L 17.000526 11.501648 M 17.999981 11.501648 L 19.998891 11.501648 M 22.001571 11.501648 L 24.000481 11.501648 M 24.999936 11.501648 L 25.99939 11.501648 M 26.998845 11.501648 L 27.9983 11.501648 M -0.00151775 12.501103 L 2.001163 12.501103 M 3.000618 12.501103 L 6.998437 12.501103 M 9.001117 12.501103 L 10.000572 12.501103 M 11.000027 12.501103 L 12.998936 12.501103 M 16.001072 12.501103 L 17.999981 12.501103 M 19.998891 12.501103 L 20.998345 12.501103 M 24.999936 12.501103 L 26.998845 12.501103 M 1.001708 13.500557 L 4.000073 13.500557 M 4.999527 13.500557 L 5.998982 13.500557 M 6.998437 13.500557 L 8.001663 13.500557 M 11.000027 13.500557 L 11.999482 13.500557 M 12.998936 13.500557 L 16.001072 13.500557 M 17.000526 13.500557 L 23.001026 13.500557 M 24.000481 13.500557 L 24.999936 13.500557 M 27.9983 13.500557 L 29.001526 13.500557 M -0.00151775 14.500012 L 3.000618 14.500012 M 4.000073 14.500012 L 4.999527 14.500012 M 5.998982 14.500012 L 6.998437 14.500012 M 8.001663 14.500012 L 9.001117 14.500012 M 12.998936 14.500012 L 17.999981 14.500012 M 22.001571 14.500012 L 24.000481 14.500012 M 24.999936 14.500012 L 26.998845 14.500012 M -0.00151775 15.499467 L 1.001708 15.499467 M 4.999527 15.499467 L 5.998982 15.499467 M 6.998437 15.499467 L 8.001663 15.499467 M 10.000572 15.499467 L 11.999482 15.499467 M 12.998936 15.499467 L 13.998391 15.499467 M 15.001617 15.499467 L 16.001072 15.499467 M 20.998345 15.499467 L 22.001571 15.499467 M 23.001026 15.499467 L 24.999936 15.499467 M 26.998845 15.499467 L 27.9983 15.499467 M 1.001708 16.498921 L 3.000618 16.498921 M 4.999527 16.498921 L 8.001663 16.498921 M 9.001117 16.498921 L 10.000572 16.498921 M 11.999482 16.498921 L 12.998936 16.498921 M 13.998391 16.498921 L 16.001072 16.498921 M 17.000526 16.498921 L 17.999981 16.498921 M 19.998891 16.498921 L 20.998345 16.498921 M 23.001026 16.498921 L 24.000481 16.498921 M 24.999936 16.498921 L 26.998845 16.498921 M -0.00151775 17.498376 L 2.001163 17.498376 M 4.999527 17.498376 L 5.998982 17.498376 M 10.000572 17.498376 L 11.000027 17.498376 M 11.999482 17.498376 L 12.998936 17.498376 M 15.001617 17.498376 L 17.000526 17.498376 M 18.999436 17.498376 L 20.998345 17.498376 M 22.001571 17.498376 L 24.999936 17.498376 M 25.99939 17.498376 L 26.998845 17.498376 M 27.9983 17.498376 L 29.001526 17.498376 M -0.00151775 18.501602 L 1.001708 18.501602 M 2.001163 18.501602 L 3.000618 18.501602 M 4.000073 18.501602 L 6.998437 18.501602 M 8.001663 18.501602 L 10.000572 18.501602 M 11.000027 18.501602 L 11.999482 18.501602 M 17.999981 18.501602 L 18.999436 18.501602 M 23.001026 18.501602 L 24.000481 18.501602 M 25.99939 18.501602 L 26.998845 18.501602 M -0.00151775 19.501057 L 1.001708 19.501057 M 2.001163 19.501057 L 5.998982 19.501057 M 6.998437 19.501057 L 10.000572 19.501057 M 11.000027 19.501057 L 11.999482 19.501057 M 13.998391 19.501057 L 15.001617 19.501057 M 16.001072 19.501057 L 17.000526 19.501057 M 17.999981 19.501057 L 18.999436 19.501057 M 23.001026 19.501057 L 24.999936 19.501057 M 26.998845 19.501057 L 27.9983 19.501057 M -0.00151775 20.500512 L 1.001708 20.500512 M 2.001163 20.500512 L 4.000073 20.500512 M 4.999527 20.500512 L 8.001663 20.500512 M 10.000572 20.500512 L 11.000027 20.500512 M 11.999482 20.500512 L 12.998936 20.500512 M 17.000526 20.500512 L 24.999936 20.500512 M 25.99939 20.500512 L 29.001526 20.500512 M 8.001663 21.499966 L 9.001117 21.499966 M 10.000572 21.499966 L 16.001072 21.499966 M 17.000526 21.499966 L 18.999436 21.499966 M 19.998891 21.499966 L 20.998345 21.499966 M 24.000481 21.499966 L 29.001526 21.499966 M -0.00151775 22.499421 L 6.998437 22.499421 M 10.000572 22.499421 L 11.999482 22.499421 M 12.998936 22.499421 L 17.999981 22.499421 M 18.999436 22.499421 L 20.998345 22.499421 M 22.001571 22.499421 L 23.001026 22.499421 M 24.000481 22.499421 L 26.998845 22.499421 M -0.00151775 23.498876 L 1.001708 23.498876 M 5.998982 23.498876 L 6.998437 23.498876 M 8.001663 23.498876 L 9.001117 23.498876 M 11.000027 23.498876 L 11.999482 23.498876 M 12.998936 23.498876 L 13.998391 23.498876 M 15.001617 23.498876 L 17.000526 23.498876 M 17.999981 23.498876 L 20.998345 23.498876 M 24.000481 23.498876 L 24.999936 23.498876 M 27.9983 23.498876 L 29.001526 23.498876 M -0.00151775 24.49833 L 1.001708 24.49833 M 2.001163 24.49833 L 4.999527 24.49833 M 5.998982 24.49833 L 6.998437 24.49833 M 8.001663 24.49833 L 10.000572 24.49833 M 11.999482 24.49833 L 12.998936 24.49833 M 13.998391 24.49833 L 15.001617 24.49833 M 17.000526 24.49833 L 17.999981 24.49833 M 19.998891 24.49833 L 24.999936 24.49833 M 25.99939 24.49833 L 26.998845 24.49833 M 27.9983 24.49833 L 29.001526 24.49833 M -0.00151775 25.501557 L 1.001708 25.501557 M 2.001163 25.501557 L 4.999527 25.501557 M 5.998982 25.501557 L 6.998437 25.501557 M 8.001663 25.501557 L 9.001117 25.501557 M 11.000027 25.501557 L 11.999482 25.501557 M 16.001072 25.501557 L 17.000526 25.501557 M 17.999981 25.501557 L 20.998345 25.501557 M 23.001026 25.501557 L 24.000481 25.501557 M 24.999936 25.501557 L 26.998845 25.501557 M -0.00151775 26.501011 L 1.001708 26.501011 M 2.001163 26.501011 L 4.999527 26.501011 M 5.998982 26.501011 L 6.998437 26.501011 M 8.001663 26.501011 L 9.001117 26.501011 M 12.998936 26.501011 L 18.999436 26.501011 M 22.001571 26.501011 L 27.9983 26.501011 M -0.00151775 27.500466 L 1.001708 27.500466 M 5.998982 27.500466 L 6.998437 27.500466 M 10.000572 27.500466 L 11.000027 27.500466 M 12.998936 27.500466 L 15.001617 27.500466 M 16.001072 27.500466 L 17.000526 27.500466 M 19.998891 27.500466 L 20.998345 27.500466 M 23.001026 27.500466 L 24.000481 27.500466 M 24.999936 27.500466 L 25.99939 27.500466 M 26.998845 27.500466 L 27.9983 27.500466 M -0.00151775 28.499921 L 6.998437 28.499921 M 8.001663 28.499921 L 9.001117 28.499921 M 10.000572 28.499921 L 13.998391 28.499921 M 17.000526 28.499921 L 17.999981 28.499921 M 18.999436 28.499921 L 19.998891 28.499921 M 20.998345 28.499921 L 22.001571 28.499921 M 23.001026 28.499921 L 26.998845 28.499921 " stroke="#9d9d9d" stroke-width="1" stroke-opacity="1" stroke-miterlimit="4"/></g></g></g><g mask="url(#d07b3f86fd)"><g transform="matrix(1, 0, 0, 1, 14, 14)"><g clip-path="url(#42b6f142ef)"><g clip-path="url(#3f89e4a924)"><g transform="matrix(1, 0, 0, 1, -0.000000000000003553, -0.000000000000012434)"><g clip-path="url(#ce1c4fc6f9)"><g clip-path="url(#0a69e83f22)"><path fill="#141414" d="M 0.398438 0.398438 L 98.851562 0.398438 L 98.851562 115.773438 L 0.398438 115.773438 Z M 0.398438 0.398438 " fill-opacity="1" fill-rule="nonzero"/></g></g></g></g></g></g></g></svg>